<svg width="33" height="36" viewBox="0 0 33 36" fill="none" xmlns="http://www.w3.org/2000/svg">
<g clip-path="url(#clip0_101_24)">
<path fill-rule="evenodd" clip-rule="evenodd" d="M32.0129 11.7812C32.0148 11.231 31.9527 10.6909 31.7801 10.1689C31.2773 8.64631 30.431 7.38324 29.0117 6.56165C25.7143 4.65282 22.414 2.74993 19.1243 0.829703C18.2299 0.307127 17.2768 0.0438246 16.2523 0.0160459C15.1228 -0.0141019 14.0498 0.189096 13.0558 0.764906C9.7319 2.6902 6.38746 4.58261 3.07857 6.53394C1.10576 7.6979 0.066541 9.48857 0.040006 11.7772C-0.00331612 15.604 0.0241274 19.4309 0.0182428 23.2577C0.0173018 23.8471 0.0894205 24.4234 0.284369 24.9792C0.803624 26.4588 1.64313 27.6863 3.03359 28.4887C6.30553 30.3769 9.57839 32.2643 12.8389 34.1708C13.6954 34.6719 14.5983 34.9685 15.583 35.0227C16.786 35.0899 17.9303 34.8954 18.99 34.2808C22.292 32.3683 25.5944 30.4572 28.9074 28.5634C29.8314 28.0345 30.5451 27.3147 31.0878 26.4134C31.6117 25.5446 31.9809 24.6153 31.9909 23.5885C32.0095 21.5724 31.9993 19.5563 32.0009 17.5401L32.0064 17.5401C32.008 15.6203 32.0073 13.7005 32.0129 11.7812ZM12.3782 21.959C12.6373 22.2345 12.6246 22.6677 12.3491 22.9268C12.2166 23.0514 12.0477 23.1133 11.8792 23.1132C11.6975 23.113 11.5158 23.0407 11.3813 22.8977L6.7531 17.9851C6.50404 17.721 6.50438 17.3087 6.75387 17.0446L11.3901 12.1422C11.6501 11.8671 12.0838 11.8556 12.3585 12.1152C12.6331 12.3752 12.6451 12.8089 12.3855 13.0836L8.193 17.516L12.3782 21.959ZM17.8543 12.8438L15.4983 22.5286C15.4218 22.8421 15.1418 23.0515 14.8327 23.0512C14.7793 23.0512 14.7254 23.0447 14.6711 23.0319C14.3036 22.9426 14.0779 22.5721 14.1677 22.2042L16.5237 12.5195C16.6135 12.152 16.9835 11.9281 17.3514 12.0161C17.7184 12.1059 17.9441 12.4759 17.8543 12.8438ZM25.2691 18.0035L20.6329 22.9058C20.4981 23.0486 20.3168 23.1201 20.1346 23.12C19.9657 23.1198 19.7968 23.0576 19.6645 22.9328C19.3899 22.6728 19.3779 22.2391 19.6374 21.9645L23.83 17.532L19.6447 13.0895C19.3856 12.814 19.3983 12.3807 19.6738 12.1216C19.9494 11.8626 20.3826 11.8757 20.6417 12.1507L25.2699 17.0634C25.5189 17.3275 25.5186 17.7398 25.2691 18.0035Z" fill="#1e5128"/>
</g>
<defs>
<clipPath id="clip0_101_24">
<rect width="31.9939" height="35.0222" fill="white" transform="translate(0.0287781) rotate(0.0470925)"/>
</clipPath>
</defs>
</svg>
